<?xml version="1.0" encoding="iso-8859-1"?>
<!-- Generator: Adobe Illustrator 19.0.0, SVG Export Plug-In . SVG Version: 6.00 Build 0)  -->
<svg version="1.1" id="Capa_1" xmlns="http://www.w3.org/2000/svg" xmlns:xlink="http://www.w3.org/1999/xlink" x="0px" y="0px"
	 viewBox="0 0 384 384" style="enable-background:new 0 0 384 384;" xml:space="preserve">
<g>
	<g>
		<g>
			<path d="M192,197.333c26.453,0,48-21.44,48-48c0-26.453-21.547-48-48-48s-48,21.547-48,48
				C144,175.893,165.547,197.333,192,197.333z"/>
			<path d="M341.333,0H42.667C19.093,0,0,19.093,0,42.667v298.667C0,364.907,19.093,384,42.667,384h298.667
				C364.907,384,384,364.907,384,341.333V42.667C384,19.093,364.907,0,341.333,0z M341.333,341.333H42.667V42.667h298.667V341.333z"
				/>
			<path d="M288,282.667c0-32-64-48-96-48s-96,16-96,48v16h192V282.667z"/>
		</g>
	</g>
</g>
<g>
</g>
<g>
</g>
<g>
</g>
<g>
</g>
<g>
</g>
<g>
</g>
<g>
</g>
<g>
</g>
<g>
</g>
<g>
</g>
<g>
</g>
<g>
</g>
<g>
</g>
<g>
</g>
<g>
</g>
</svg>
