<svg height="512" viewBox="0 0 53 60" width="512" xmlns="http://www.w3.org/2000/svg"><g id="Page-1" fill="none" fill-rule="evenodd"><g id="060---Download-Picture" fill-rule="nonzero"><path id="Shape" d="m45 5v23h-12c-1.1032019.0032948-1.9967052.8967981-2 2v16h-4c-.4044441.0016958-.7680455.2468472-.9212679.6211476s-.0658935.8040433.2212679 1.0888524l.28.29h-21.58c-2.209139 0-4-1.790861-4-4v-39c0-2.209139 1.790861-4 4-4h36c2.209139 0 4 1.790861 4 4z" fill="#f5f5f5"/><g fill="#cfd8dc"><path id="Shape" d="m27 46h-3c-.4044441.0016958-.7680455.2468472-.9212679.6211476s-.0658935.8040433.2212679 1.0888524l.28.29h3l-.28-.29c-.2871614-.2848091-.3744903-.714552-.2212679-1.0888524s.5168238-.6194518.9212679-.6211476z"/><path id="Shape" d="m41 1h-3c2.209139 0 4 1.790861 4 4v23h3v-23c0-2.209139-1.790861-4-4-4z"/><path id="Shape" d="m28 30v16h3v-16c.0032948-1.1032019.8967981-1.9967052 2-2h-3c-1.1032019.0032948-1.9967052.8967981-2 2z"/></g><path id="Shape" d="m41 27v1h-8c-1.1032019.0032948-1.9967052.8967981-2 2v3h-26v-8l9.29-9.29c.3930079-.3899779 1.0269921-.3899779 1.42 0l10.58 10.58c.3930079.3899779 1.0269921.3899779 1.42 0l5.58-5.58c.3930079-.3899779 1.0269921-.3899779 1.42 0z" fill="#60a917"/><path id="Shape" d="m28 30v3h3v-3c.0032948-1.1032019.8967981-1.9967052 2-2h-3c-1.1032019.0032948-1.9967052.8967981-2 2z" fill="#549414"/><path id="Shape" d="m23.29 26.29c.3930079.3899779 1.0269921.3899779 1.42 0l.79-.79-9.79-9.79c-.3930079-.3899779-1.0269921-.3899779-1.42 0l-.79.79z" fill="#549414"/><path id="Shape" d="m34.71 20.71c-.3930079-.3899779-1.0269921-.3899779-1.42 0l-.79.79 5.5 5.5v1h3v-1z" fill="#549414"/><path id="Shape" d="m41 5v22l-6.29-6.29c-.3930079-.3899779-1.0269921-.3899779-1.42 0l-5.58 5.58c-.3930079.3899779-1.0269921.3899779-1.42 0l-10.58-10.58c-.3930079-.3899779-1.0269921-.3899779-1.42 0l-9.29 9.29v-20z" fill="#02a9f4"/><path id="Shape" d="m38 5v19l3 3v-22z" fill="#0377bc"/><circle id="Oval" cx="33" cy="13" fill="#ffdc00" r="3"/><path id="Shape" d="m51.7 47.71-11.99 11c-.3930079.3899779-1.0269921.3899779-1.42 0l-11.7-10.71h-.01l-.28-.29c-.2871614-.2848091-.3744903-.714552-.2212679-1.0888524s.5168238-.6194518.9212679-.6211476h4v-16c.0032948-1.1032019.8967981-1.9967052 2-2h12c1.1032019.0032948 1.9967052.8967981 2 2v16h4c.4044441.0016958.7680455.2468472.9212679.6211476s.0658935.8040433-.2212679 1.0888524z" fill="#ef314c"/><path id="Shape" d="m44 30v16h3v-16c-.0032948-1.1032019-.8967981-1.9967052-2-2h-3c1.1032019.0032948 1.9967052.8967981 2 2z" fill="#bb193b"/><path id="Shape" d="m51 46h-3c.4044441.0016958.7680455.2468472.9212679.6211476s.0658935.8040433-.2212679 1.0888524l-11.2 10.276.791.724c.3930079.3899779 1.0269921.3899779 1.42 0l11.99-11c.287288-.2849376.3745526-.7149215.2210744-1.0893121-.1534782-.3743905-.5174485-.6193945-.9220744-.6206879z" fill="#bb193b"/><path id="Shape" d="m41 0h-36c-2.76005315.00330612-4.99669388 2.23994685-5 5v39c.00330612 2.7600532 2.23994685 4.9966939 5 5h21.229l11.354 10.417c.3786941.3786.892513.5908921 1.428.59.5145828.0036962 1.0094212-.1978381 1.375-.56l12.021-11.03c.573065-.570805.7459051-1.430588.4379395-2.1785045-.3079656-.7479164-1.0361017-1.2367093-1.8449395-1.2384955h-3v-15c-.0052514-1.2667854-.8056491-2.3937454-2-2.816v-22.184c-.0033061-2.76005315-2.2399468-4.99669388-5-5zm-39 44v-39c0-1.65685425 1.34314575-3 3-3h36c1.6568542 0 3 1.34314575 3 3v22h-2v-22c0-.55228475-.4477153-1-1-1h-36c-.55228475 0-1 .44771525-1 1v28c0 .5522847.44771525 1 1 1h25v11h-3c-.5310472-.0089528-1.0426568.1996516-1.416039.5773777-.3733823.3777261-.5760554.8917141-.560961 1.4226223h-20.023c-1.65685425 0-3-1.3431458-3-3zm28-14v2h-24v-6.586l9-9 10.586 10.586c.7809997.7807639 2.0470003.7807639 2.828 0l5.586-5.586 5.586 5.586h-6.586c-1.6568542 0-3 1.3431458-3 3zm10-5.414-4.586-4.586c-.7809997-.7807639-2.0470003-.7807639-2.828 0l-5.586 5.586-10.586-10.586c-.7809997-.7807639-2.0470003-.7807639-2.828 0l-7.586 7.586v-16.586h34zm7 22.414 4.024-.027-12.059 11-11.65-10.653c-.015-.017-.031-.032-.047-.047l-.268-.273h4c.5522847 0 1-.4477153 1-1v-16c0-.5522847.4477153-1 1-1h12c.5522847 0 1 .4477153 1 1v16c0 .5522847.4477153 1 1 1z" fill="#000"/><path id="Shape" d="m33 17c2.209139 0 4-1.790861 4-4s-1.790861-4-4-4-4 1.790861-4 4 1.790861 4 4 4zm0-6c1.1045695 0 2 .8954305 2 2s-.8954305 2-2 2-2-.8954305-2-2 .8954305-2 2-2z" fill="#000"/></g></g></svg>