<svg height="512" viewBox="0 0 58 58" width="512" xmlns="http://www.w3.org/2000/svg"><g id="Page-1" fill="none" fill-rule="evenodd"><g id="028---UI-Pop-Outs" fill-rule="nonzero"><path id="Shape" d="m39 0h4c1.6568542 0 3 1.34314575 3 3v49c0 1.6568542-1.3431458 3-3 3h-28c-1.6568542 0-3-1.3431458-3-3v-49c0-1.65685425 1.3431458-3 3-3z" fill="#2fa8cc"/><path id="Shape" d="m46 3v1s-24.89.73-32.07 31h-1.93v-4.81c1.8562997-1.0689456 3.0003513-3.0479231 3.0003513-5.19s-1.1440516-4.1210544-3.0003513-5.19v-16.81c0-1.65685425 1.3431458-3 3-3h4l2.86 3.05c.5663757.60708315 1.3597411.95123705 2.19.95h9.9c.8302589.00123705 1.6236243-.34291685 2.19-.95l2.86-3.05h4c1.6568542 0 3 1.34314575 3 3z" fill="#67b9cc"/><path id="Shape" d="m39 0-2.86 3.05c-.5663757.60708315-1.3597411.95123705-2.19.95h-9.9c-.8302589.00123705-1.6236243-.34291685-2.19-.95l-2.86-3.05z" fill="#464f5d"/><path id="Shape" d="m16 11c-.4043959-.0000863-.7689341-.2437275-.923678-.6173454-.1547439-.373618-.0692299-.80366035.216678-1.0896546l2-2c.3923789-.37897221 1.0160848-.37355237 1.4018186.01218142.3857338.3857338.3911536 1.00943969.0121814 1.40181858l-2 2c-.1874927.1875494-.4418052.2929434-.707.293z" fill="#fff"/><path id="Shape" d="m16 18c-.4043959-.0000863-.7689341-.2437275-.923678-.6173454-.1547439-.373618-.0692299-.8036603.216678-1.0896546l9-9c.3923789-.37897221 1.0160848-.37355237 1.4018186.01218142.3857338.3857338.3911536 1.00943969.0121814 1.40181858l-9 9c-.1874927.1875494-.4418052.2929434-.707.293z" fill="#fff"/><path id="Shape" d="m34 31c.0001764.4737979-.0671672.9452034-.2 1.4-2.8444444 2.1333333-6.7555556 2.1333333-9.6 0-.5477978-1.8781638.0501415-3.903283 1.5302464-5.1826857 1.4801048-1.2794027 3.5704317-1.5780208 5.3495651-.7642236s2.9201885 2.5904887 2.9201885 4.5469093z" fill="#f0c419"/><path id="Shape" d="m29 26c-1.5737865 0-3.0557281.7409708-4 2s-1.2406602 2.8891649-.8 4.4c-2.7547546-2.066066-3.8783788-5.663085-2.7894664-8.9298221s4.1460231-5.4701779 7.5894664-5.4701779c-2.209139 0-4 1.790861-4 4s1.790861 4 4 4z" fill="#285680"/><path id="Shape" d="m37 26c.0012606 2.5183558-1.184559 4.889995-3.2 6.4.4406602-1.5108351.1442719-3.1409708-.8-4.4s-2.4262135-2-4-2c2.209139 0 4-1.790861 4-4s-1.790861-4-4-4c4.418278 0 8 3.581722 8 8z" fill="#285680"/><circle id="Oval" cx="29" cy="22" fill="#fdd7ad" r="4"/><path id="Shape" d="m32 39h-6c-.5522847 0-1-.4477153-1-1s.4477153-1 1-1h6c.5522847 0 1 .4477153 1 1s-.4477153 1-1 1z" fill="#464f5d"/><path id="Shape" d="m30 43h-2c-.5522847 0-1-.4477153-1-1s.4477153-1 1-1h2c.5522847 0 1 .4477153 1 1s-.4477153 1-1 1z" fill="#464f5d"/><rect id="Rectangle-path" fill="#955ba5" height="12" rx="2" width="18" y="35"/><rect id="Rectangle-path" fill="#4fba6f" height="12" rx="2" width="18" x="40" y="5"/><path id="Shape" d="m15 25c.0009001 2.1422262-1.1432301 4.1215715-3 5.19-.9088291.5351884-1.9453097.8150382-3 .81-3.3137085 0-6-2.6862915-6-6s2.6862915-6 6-6c1.0546903-.0050382 2.0911709.2748116 3 .81 1.8567699 1.0684285 3.0009001 3.0477738 3 5.19z" fill="#df4d60"/><path id="Shape" d="m55 27c0 3.3137085-2.6862915 6-6 6-1.0546903.0050382-2.0911709-.2748116-3-.81-1.8562997-1.0689456-3.0003513-3.0479231-3.0003513-5.19s1.1440516-4.1210544 3.0003513-5.19c.9088291-.5351884 1.9453097-.8150382 3-.81 3.3137085 0 6 2.6862915 6 6z" fill="#f0c419"/><path id="Shape" d="m46 50v5c0 1.6568542-1.3431458 3-3 3h-28c-1.6568542 0-3-1.3431458-3-3v-5c0 1.6568542 1.3431458 3 3 3h28c1.6568542 0 3-1.3431458 3-3z" fill="#464f5d"/></g></g></svg>