<svg id="Layer_3" enable-background="new 0 0 64 64" height="512" viewBox="0 0 64 64" width="512" xmlns="http://www.w3.org/2000/svg"><g><path d="m33 50h-19c-2.209 0-4-1.791-4-4v-40c0-2.209 1.791-4 4-4h30c2.209 0 4 1.791 4 4v38" fill="#ba4753"/><path d="m41 47h-28c-.552 0-1-.448-1-1v-41c0-.552.448-1 1-1h28c.552 0 1 .448 1 1v41c0 .552-.448 1-1 1z" fill="#e1656e"/><path d="m13 5h32v39h-32z" fill="#eee"/><path d="m13 5v32h20c1.105 0 2-.895 2-2v-30z" fill="#fff"/><path d="m18 9h22v22h-22z" fill="#363a4f"/><path d="m18 9v17h16c1.105 0 2-.895 2-2v-15z" fill="#4c506e"/><path d="m51 62v-3l2-4v-11h-12v-10h-4v14h-4v7l4 4v3" fill="#efbe9a"/><g><path d="m34 61h20v2h-20z" fill="#ba4753"/></g><g><path d="m28 46h2v2h-2z" fill="#2c2f41"/></g><g><path d="m21 12h2v2h-2z" fill="#2c2f41"/></g><g><path d="m26 18h-5v-2h4v-4h2v5c0 .552-.447 1-1 1z" fill="#2c2f41"/></g><g><path d="m27 28h-5c-.553 0-1-.448-1-1v-7h2v6h4z" fill="#2c2f41"/></g><g><path d="m31 28h-2v-4h-4v-2h5c.553 0 1 .448 1 1z" fill="#2c2f41"/></g><g><path d="m35 26h2v2h-2z" fill="#2c2f41"/></g><g><path d="m33 24h2v2h-2z" fill="#2c2f41"/></g><g><path d="m27 18h2v2h-2z" fill="#2c2f41"/></g><g><path d="m29 16h2v2h-2z" fill="#2c2f41"/></g><g><path d="m35 18h-2v-4h-4v-2h5c.553 0 1 .448 1 1z" fill="#2c2f41"/></g><g><path d="m33 20h2v2h-2z" fill="#2c2f41"/></g><g><path d="m48 44h2v6h-2z" fill="#db9b7c"/></g><g><path d="m48 44h2v6h-2z" fill="#db9b7c"/></g><g><path d="m44 44h2v6h-2z" fill="#db9b7c"/></g><g><path d="m44 44h2v6h-2z" fill="#db9b7c"/></g><g><path d="m40 44h2v6h-2z" fill="#db9b7c"/></g><g><path d="m36 48h2v4h-2z" fill="#db9b7c"/></g><g><path d="m36 48h2v4h-2z" fill="#db9b7c"/></g><g><path d="m40 44h2v6h-2z" fill="#db9b7c"/></g></g></svg>