<svg id="Layer_1" enable-background="new 0 0 480 480" height="512" viewBox="0 0 480 480" width="512" xmlns="http://www.w3.org/2000/svg"><path d="m323 40v400c0 17.7-14.3 32-32 32h-188c-17.7 0-32-14.3-32-32v-400c0-17.7 14.3-32 32-32h188c17.7 0 32 14.3 32 32z" fill="#d6f4fc"/><path d="m323 40v88.6c0 11.7-8.5 21.7-20 23.7-75.4 12.6-143.6 55.2-187.6 126.6-12.7 20.5-44.4 11.4-44.4-12.7v-226.2c0-17.7 14.3-32 32-32h188c17.7 0 32 14.3 32 32z" fill="#e8f8fc"/><path d="m269 8-14.3 25.7c-3.5 6.4-10.2 10.3-17.5 10.3h-80.5c-7.3 0-14-3.9-17.5-10.3l-14.2-25.7z" fill="#4d4e59"/><path d="m409 120v50c0 13.3-10.7 24-24 24h-42.5c-2.3 0-.6-.7-29.3 17.3-4 2.5-9.2-.4-9.2-5.1v-6.2c0-3.3-2.7-6-6-6h-3c-13.3 0-24-10.7-24-24v-50c0-13.3 10.7-24 24-24 1.6 0 91.1 0 90 0 13.3 0 24 10.7 24 24z" fill="#fe4f60"/><path d="m409 120c0 3.6-2.8 6-5.8 6h-40c-34.3 0-62.2 27.8-62.2 62.2 0 3.1-2.4 5.8-6 5.8-13.2 0-24-10.8-24-24v-50c0-13.3 10.7-24 24-24h90c13.3 0 24 10.7 24 24z" fill="#ff6d7a"/><path d="m197 174.4c19.9 0 36.3 16.4 36.3 36.3s-16.4 36.3-36.3 36.3-36.3-16.4-36.3-36.3 16.4-36.3 36.3-36.3z" fill="#ffdfba"/><path d="m255.4 306.2v30.3c0 8.8-7.2 16-16 16-2.1 0-86.7 0-84.9 0-8.8 0-16-7.2-16-16v-30.3c0-17.8 14.4-32.2 32.2-32.2h52.4c17.9 0 32.3 14.4 32.3 32.2z" fill="#99d856"/><path d="m331 253v187c0 22.1-17.9 40-40 40h-188c-22.1 0-40-17.9-40-40v-400c0-22.1 17.9-40 40-40h188c22.1 0 40 17.9 40 40v23c0 4.4-3.6 8-8 8s-8-3.6-8-8v-23c0-13.2-10.8-24-24-24h-152.4l7.7 13.8c2.1 3.8 6.1 6.2 10.5 6.2h80.5c4.4 0 8 3.6 8 8s-3.6 8-8 8h-80.5c-10.2 0-19.5-5.5-24.5-14.4l-12-21.6h-17.3c-13.2 0-24 10.8-24 24v400c0 13.2 10.8 24 24 24h188c13.2 0 24-10.8 24-24v-187c0-4.4 3.6-8 8-8s8 3.6 8 8zm-150 91.6c-4.4 0-8 3.6-8 8s3.6 8 8 8h74.4c4.4 0 8-3.6 8-8v-46.3c0-22.2-18.1-40.2-40.2-40.2h-52.4c-22.2 0-40.2 18-40.2 40.2v46.3c0 4.4 3.6 8 8 8s8-3.6 8-8v-46.3c0-13.4 10.9-24.2 24.2-24.2h52.4c13.4 0 24.2 10.9 24.2 24.2v38.3zm45.6-111.9c4 1.9 8.8.1 10.6-3.9 13.5-29.2-8-62.8-40.2-62.8-24.4 0-44.3 19.9-44.3 44.3s19.9 44.3 44.3 44.3c4.4 0 8-3.6 8-8s-3.6-8-8-8c-15.6 0-28.3-12.7-28.3-28.3s12.7-28.3 28.3-28.3c20.6 0 34.3 21.4 25.7 40.1-1.9 4-.1 8.8 3.9 10.6zm158.4-144.7h-90c-17.6 0-32 14.4-32 32v50c0 4.4 3.6 8 8 8s8-3.6 8-8v-50c0-8.8 7.2-16 16-16h90c8.8 0 16 7.2 16 16v50c0 8.8-7.2 16-16 16h-44.3c-3.1 0-2.2 0-28.7 16.6v-8.6c0-4.4-3.6-8-8-8s-8 3.6-8 8v23c0 6.3 6.9 10.1 12.2 6.8l34.8-21.8h42c17.6 0 32-14.4 32-32v-50c0-17.6-14.4-32-32-32z"/></svg>