<svg id="Capa_1" enable-background="new 0 0 512 512" height="512" viewBox="0 0 512 512" width="512" xmlns="http://www.w3.org/2000/svg"><g><path d="m510.881 90.541-8.556-14.801c-5.978-5.978-14.236-9.675-23.357-9.675h-2.004l-220.964 50.935-220.964-50.936h-2.004c-9.122 0-17.381 3.698-23.359 9.677l3.327 353.259 494.424.688c2.907-4.919 4.576-10.657 4.576-16.784v-313.807c0-2.959-.389-5.827-1.119-8.556z" fill="#ffe8a0"/><path d="m35.036 66.065 180.085 180.089c22.556 22.536 59.218 22.536 81.758 0l180.085-180.089z" fill="#fff8c3"/><path d="m510.881 90.541c-1.512-5.695-4.541-10.741-8.558-14.799l-187.93 187.93c-32.25 32.25-84.537 32.25-116.786 0l-187.933-187.931c-6.005 5.946-9.674 14.223-9.674 23.356v313.807c0 18.243 14.789 33.032 33.032 33.032h445.936c8.526 0 16.565-3.438 22.387-8.762 2.475-2.233 4.357-4.583 6.069-7.486l-167.843-167.848zm-481.433 314.273c-2.898-4.913-4.673-10.569-4.673-16.686v-234.06c0-14.714 17.79-22.083 28.195-11.679l119.45 119.45zm446.097 16.347h-417.739c-6.114 0-11.769-1.774-16.681-4.671l142.99-142.992c18.159 17.954 42.05 29.709 67.568 30.785 28.071 1.184 54.658-9.203 74.388-28.934l1.832-1.832z" fill="#ffd78c"/></g></svg>